<?xml version="1.0" encoding="UTF-8"?>
<svg width="140px" height="400px" viewBox="0 0 140 400" version="1.1" xmlns="http://www.w3.org/2000/svg" xmlns:xlink="http://www.w3.org/1999/xlink">
    <!-- Generator: Sketch 53.2 (72643) - https://sketchapp.com -->
    <title>Fill 1</title>
    <desc>Created with Sketch.</desc>
    <g id="Pre-Auth" stroke="none" stroke-width="1" fill="none" fill-rule="evenodd">
        <g id="Member-Medical-Profile-3" transform="translate(-560.000000, -380.000000)" fill="#DBF1FA">
            <g id="Medical-Information" transform="translate(60.000000, 369.000000)">
                <g id="Group-3" transform="translate(500.000000, 11.000000)">
                    <path d="M138.597771,209.157793 C137.992228,204.142877 138.568167,199.082086 138.514341,194.055097 C138.371702,181.139938 140.449387,167.548719 136.140612,155.130947 C124.820995,122.202 130.0798,94.7249926 123.515714,80.5880967 C119.928208,72.8713555 115.657112,72.0963011 101.134845,68.4262615 C95.0444285,66.8858107 87.4953261,60.8616338 85.258854,55.5014444 C82.72903,49.4362211 84.599485,41.9029819 86.0850837,35.7967121 C89.8852024,35.8160281 90.0978152,30.9314951 90.4719062,28.5773579 C90.6280017,27.6019 91.0774492,25.1463538 90.862145,24.1250204 C90.6306931,23.026423 87.7536911,22.0316491 87.3957479,23.5310535 C88.6418208,18.3181485 89.8690545,13.832008 87.102396,8.49596361 C80.8128229,-3.64172655 58.1063068,-1.76324576 53.1677674,7.76437019 C50.4011088,13.1004146 51.0873908,18.0742841 52.6025939,23.5310535 C52.1908247,22.0413071 49.7282832,22.2948296 49.1361968,24.1250204 C48.8132405,25.1222088 49.3730313,27.6019 49.5264356,28.5773579 C49.9005266,30.9314951 50.1131394,35.8160281 53.913258,35.7967121 C55.3988568,41.9029819 57.2693118,49.4362211 54.7394878,55.5014444 C52.505707,60.8616338 44.9566045,66.8858107 38.8661878,68.4262615 C35.8088686,69.1989014 25.3235555,71.3840237 21.2354675,74.3490294 C7.79241339,84.0987793 17.026271,116.824909 3.86042098,155.130947 C-1.47912246,170.516139 2.78120882,197.734795 1.40057083,209.157793 C0.883840816,213.453188 -0.502179783,217.835505 0.189484866,222.200921 C0.967271182,227.124086 8.25800866,232.090711 13.6917477,232.33699 C15.1046813,232.399767 17.23081,231.511232 16.8082755,229.956294 C16.5660583,229.065343 13.6029347,228.565542 12.8278397,227.990891 C9.70862051,225.672971 9.10038623,221.430695 10.1284636,217.961059 C10.6263545,216.273324 13.3526436,219.701913 14.1169734,224.73856 C14.2273168,225.477397 15.3899593,226.339373 16.0251066,224.789264 C18.5899175,218.523637 15.4922288,216.092236 13.7913258,209.99321 C11.334167,201.180286 12.8978135,189.503765 16.2027326,180.905732 C32.9641622,137.297452 23.9644479,143.630685 36.7104548,110.935944 C43.4494754,175.342724 18.2561961,164.156347 29.6430954,253.756018 C33.3113402,282.623776 30.2244167,278.289749 30.2432558,292.583588 C30.2594036,304.73335 24.2712564,314.260966 32.8565102,343.198746 C37.1975805,357.823371 40.0288303,363.992417 34.2586786,380.307192 C32.8592015,384.266972 25.5227118,393.014704 27.8426143,397.28354 C29.826104,400.939092 40.1929998,400.120577 43.8020359,399.289989 C51.587973,397.500845 47.7286457,391.505642 49.6313964,387.096765 C50.8559388,384.264557 53.4799584,383.156302 52.8313546,379.751857 C51.6121947,373.324459 52.621433,366.940522 51.7790555,360.566242 C50.7294476,352.632196 53.6468191,345.094128 53.3588498,337.283221 C53.0924109,330.005919 54.8794355,322.81071 54.0397492,315.615501 C53.1785326,308.239204 51.5772078,297.42466 53.2377412,290.777542 C54.6372183,285.175903 55.1001223,279.383518 56.2654561,273.745661 C59.7614576,256.844163 65.4427964,240.396591 67.0898733,211.340501 C68.8984283,211.893421 72.2437169,212.149358 72.9111598,211.340501 C74.560928,240.427979 80.2207364,256.752412 83.7328857,273.745661 C84.9009108,279.383518 85.3638148,285.175903 86.7632919,290.777542 C88.4345905,297.468121 86.7955875,308.446851 85.9585925,315.615501 C85.1189063,322.81071 86.9086222,330.005919 86.6421833,337.283221 C86.354214,345.094128 89.2688942,352.632196 88.2192863,360.566242 C87.3769088,366.940522 88.3888384,373.324459 87.1669872,379.751857 C86.5210747,383.156302 89.142403,384.264557 90.3669454,387.096765 C92.2831526,391.529787 88.394221,397.496016 96.1989972,399.289989 C99.805342,400.120577 110.172238,400.939092 112.158419,397.28354 C114.478321,393.014704 107.141832,384.266972 105.739663,380.307192 C95.9164104,352.528373 112.898527,345.18105 111.738576,312.269004 C111.504432,305.684663 109.747012,299.153442 109.755086,292.583588 C109.765851,285.64673 108.239883,278.577075 108.600517,271.690922 C110.002686,245.150741 119.920134,217.067694 106.875393,165.279089 C104.176017,154.553882 99.867242,143.616198 103.287887,110.935944 C113.364122,136.778334 107.871175,127.711888 116.090411,159.167991 C120.525677,176.13468 131.34202,191.570577 126.207016,209.99321 C124.508804,216.092236 121.408424,218.523637 123.975926,224.789264 C124.611074,226.344202 125.787173,225.467739 125.88406,224.73856 C126.465381,220.382802 129.904865,218.033494 129.872569,217.961059 C131.387773,221.283411 130.289721,225.672971 127.170502,227.990891 C126.398098,228.565542 123.434975,229.065343 123.192758,229.956294 C122.770223,231.511232 124.893661,232.399767 126.309285,232.33699 C131.743024,232.090711 139.031071,227.124086 139.811548,222.200921 C140.500522,217.835505 139.117192,213.453188 138.597771,209.157793" id="Fill-1"></path>
                </g>
            </g>
        </g>
    </g>
</svg>