<?xml version="1.0" encoding="UTF-8"?>
<svg width="45px" height="36px" viewBox="0 0 45 36" version="1.1" xmlns="http://www.w3.org/2000/svg" xmlns:xlink="http://www.w3.org/1999/xlink">
    <!-- Generator: Sketch 53.2 (72643) - https://sketchapp.com -->
    <title>ic-benefit</title>
    <desc>Created with Sketch.</desc>
    <g id="Pre-Auth" stroke="none" stroke-width="1" fill="none" fill-rule="evenodd">
        <g id="Member-Medical-Profile-3" transform="translate(-60.000000, -2115.000000)" fill="#0079C8">
            <g id="Tebtom" transform="translate(30.000000, 2080.000000)">
                <g id="Group-4" transform="translate(30.000000, 35.000000)">
                    <path d="M45,12.0955511 C45,13.3750971 44.7903325,14.6374101 44.3834436,15.8508965 C42.4720231,24.4994402 25.9437164,34.9617511 25.2405166,35.4069354 C25.0207965,35.5433629 24.7742697,35.6146881 24.522956,35.6146881 C24.2721209,35.6146881 24.0222433,35.5515007 23.8025232,35.4069354 C23.6134396,35.2839114 18.9567155,32.345216 14.235368,28.3060057 C13.6700317,27.8186964 13.6106738,26.9781118 14.0850584,26.415169 C14.5709316,25.8570131 15.4105589,25.7890387 15.9768525,26.2634233 C19.4962024,29.2700931 23.0528902,31.7008954 24.5296577,32.680301 C29.4937025,29.4438586 40.4524179,21.2098629 41.7956301,15.1371654 C42.1465119,14.0644148 42.3049593,13.0888387 42.3049593,12.0984232 C42.3049593,8.65087732 40.4280046,5.4728355 37.4055379,3.80794177 C33.5458375,1.66626996 28.3793056,2.65381331 25.5554965,6.05779816 C25.048082,6.67243978 24.0045316,6.67243978 23.4875433,6.05779816 C20.6551178,2.65141984 15.4924154,1.67153558 11.6379806,3.80411222 C8.60594005,5.4728355 6.72898538,8.64896255 6.72898538,12.0931576 C6.72898538,13.0768714 6.8955705,14.0567557 7.20576346,15.0031314 C7.40489969,15.8887132 7.7859392,16.7546686 8.27085505,17.653175 L16.1003553,17.653175 L18.789173,11.4737291 C19.0194243,10.9447735 19.5694424,10.6120819 20.1352573,10.6714398 C20.7116035,10.7217026 21.1922111,11.1362506 21.3205008,11.6991934 L23.2998958,20.0677018 L25.8604238,15.8690868 C26.101685,15.4703357 26.5358594,15.226681 27.0049784,15.226681 L31.8641895,15.226681 C32.60377,15.226681 33.2050082,15.8255257 33.2050082,16.5684571 C33.2050082,17.3075588 32.60377,17.9097544 31.8641895,17.9097544 L27.7579623,17.9097544 L23.9006553,24.245733 C23.6546072,24.6497497 23.2209114,24.8910109 22.7599302,24.8910109 C22.6866902,24.8910109 22.6158437,24.8852666 22.5502627,24.8752141 C22.0098185,24.7885707 21.5842606,24.3902982 21.4545348,23.8613426 L19.6455545,16.2386377 L18.2161777,19.5286936 C18.0026807,20.0231833 17.5187222,20.3352911 16.9849797,20.3352911 L1.34129736,20.3352911 C0.606982533,20.3348124 0,19.7345316 0,18.9939937 C0,18.254892 0.606982533,17.6526964 1.34129736,17.6526964 L5.27471651,17.6526964 C4.99563858,16.9868346 4.77017424,16.3405993 4.63039593,15.7154264 C4.25605812,14.629751 4.05357105,13.3655232 4.05357105,12.0926789 C4.05357105,7.6685996 6.45948131,3.59540214 10.3469459,1.45373033 C14.8495309,-1.03690856 20.8078208,-0.253767061 24.5287003,3.24260551 C28.2395273,-0.254245754 34.1935089,-1.03690856 38.703753,1.45373033 C42.5864307,3.59252998 45,7.6685996 45,12.0955511 Z" id="ic-benefit"></path>
                </g>
            </g>
        </g>
    </g>
</svg>